<mxfile host="Electron" modified="2024-05-28T12:49:42.008Z" agent="Mozilla/5.0 (Windows NT 10.0; Win64; x64) AppleWebKit/537.36 (KHTML, like Gecko) draw.io/24.4.8 Chrome/124.0.6367.207 Electron/30.0.6 Safari/537.36" etag="wKqcBgT0zFQk41O157Rg" version="24.4.8" type="device">
  <diagram name="Page-1" id="2YBvvXClWsGukQMizWep">
    <mxGraphModel dx="2074" dy="1196" grid="1" gridSize="10" guides="1" tooltips="1" connect="1" arrows="1" fold="1" page="1" pageScale="1" pageWidth="850" pageHeight="1100" math="0" shadow="0">
      <root>
        <mxCell id="0" />
        <mxCell id="1" parent="0" />
        <mxCell id="t_7kuoQSuqC10oWzcS06-31" value="" style="group" parent="1" vertex="1" connectable="0">
          <mxGeometry x="25" y="740" width="800" height="140" as="geometry" />
        </mxCell>
        <mxCell id="t_7kuoQSuqC10oWzcS06-32" value="" style="whiteSpace=wrap;html=1;dashed=1;fillColor=none;strokeColor=#8C4FFF;strokeWidth=2;rounded=1;arcSize=4;" parent="t_7kuoQSuqC10oWzcS06-31" vertex="1">
          <mxGeometry width="800" height="140" as="geometry" />
        </mxCell>
        <mxCell id="t_7kuoQSuqC10oWzcS06-33" value="&lt;font color=&quot;#8c4fff&quot; style=&quot;font-size: 17px;&quot;&gt;4. Token release&lt;/font&gt;" style="text;strokeColor=none;align=left;fillColor=none;html=1;verticalAlign=middle;whiteSpace=wrap;rounded=0;" parent="t_7kuoQSuqC10oWzcS06-31" vertex="1">
          <mxGeometry x="9.014084507042254" y="2" width="149.85915492957747" height="46.666666666666664" as="geometry" />
        </mxCell>
        <mxCell id="t_7kuoQSuqC10oWzcS06-37" value="&lt;font style=&quot;font-size: 18px;&quot;&gt;{&lt;/font&gt; token &lt;font style=&quot;font-size: 18px;&quot;&gt;}&lt;/font&gt;" style="text;html=1;align=center;verticalAlign=middle;resizable=0;points=[];autosize=1;strokeColor=none;fillColor=none;" parent="t_7kuoQSuqC10oWzcS06-31" vertex="1">
          <mxGeometry x="367.6363636363636" y="64" width="70" height="40" as="geometry" />
        </mxCell>
        <mxCell id="t_7kuoQSuqC10oWzcS06-24" value="" style="group" parent="1" vertex="1" connectable="0">
          <mxGeometry x="25" y="570" width="800" height="140" as="geometry" />
        </mxCell>
        <mxCell id="t_7kuoQSuqC10oWzcS06-25" value="" style="whiteSpace=wrap;html=1;dashed=1;fillColor=none;strokeColor=#8C4FFF;strokeWidth=2;rounded=1;arcSize=4;" parent="t_7kuoQSuqC10oWzcS06-24" vertex="1">
          <mxGeometry width="800" height="140" as="geometry" />
        </mxCell>
        <mxCell id="t_7kuoQSuqC10oWzcS06-26" value="&lt;font color=&quot;#8c4fff&quot; style=&quot;font-size: 17px;&quot;&gt;3. Sending backup&lt;/font&gt;" style="text;strokeColor=none;align=left;fillColor=none;html=1;verticalAlign=middle;whiteSpace=wrap;rounded=0;" parent="t_7kuoQSuqC10oWzcS06-24" vertex="1">
          <mxGeometry x="9.014084507042254" y="2" width="149.85915492957747" height="46.666666666666664" as="geometry" />
        </mxCell>
        <mxCell id="t_7kuoQSuqC10oWzcS06-30" value="A CRON job send the backup of the&lt;br&gt;B2 instance to Backup Host" style="text;html=1;align=left;verticalAlign=middle;resizable=0;points=[];autosize=1;strokeColor=none;fillColor=none;" parent="t_7kuoQSuqC10oWzcS06-24" vertex="1">
          <mxGeometry x="302.18181818181813" y="56" width="210" height="40" as="geometry" />
        </mxCell>
        <mxCell id="t_7kuoQSuqC10oWzcS06-14" value="" style="group" parent="1" vertex="1" connectable="0">
          <mxGeometry x="25" y="400" width="800" height="140" as="geometry" />
        </mxCell>
        <mxCell id="t_7kuoQSuqC10oWzcS06-15" value="" style="whiteSpace=wrap;html=1;dashed=1;fillColor=none;strokeColor=#8C4FFF;strokeWidth=2;rounded=1;arcSize=4;" parent="t_7kuoQSuqC10oWzcS06-14" vertex="1">
          <mxGeometry width="800" height="140" as="geometry" />
        </mxCell>
        <mxCell id="t_7kuoQSuqC10oWzcS06-16" value="&lt;font color=&quot;#8c4fff&quot; style=&quot;font-size: 17px;&quot;&gt;2. Request token&lt;/font&gt;" style="text;strokeColor=none;align=left;fillColor=none;html=1;verticalAlign=middle;whiteSpace=wrap;rounded=0;" parent="t_7kuoQSuqC10oWzcS06-14" vertex="1">
          <mxGeometry x="9.014084507042254" y="2" width="149.85915492957747" height="46.666666666666664" as="geometry" />
        </mxCell>
        <mxCell id="t_7kuoQSuqC10oWzcS06-19" value="&lt;font style=&quot;font-size: 18px;&quot;&gt;{&lt;/font&gt; JWT, instance &lt;font style=&quot;font-size: 18px;&quot;&gt;}&lt;/font&gt;" style="text;html=1;align=center;verticalAlign=middle;resizable=0;points=[];autosize=1;strokeColor=none;fillColor=none;" parent="t_7kuoQSuqC10oWzcS06-14" vertex="1">
          <mxGeometry x="342.29577464788736" y="31.444444444444443" width="120" height="40" as="geometry" />
        </mxCell>
        <mxCell id="t_7kuoQSuqC10oWzcS06-23" value="&lt;font style=&quot;font-size: 11px;&quot;&gt;&lt;font style=&quot;font-size: 11px;&quot;&gt;if number of given token &amp;lt; issuable token&lt;br&gt;&lt;/font&gt;&lt;font style=&quot;font-size: 11px;&quot;&gt;=&amp;gt; Generate token based on JWT + instance name&lt;br&gt;=&amp;gt; Create FTP account&lt;/font&gt;&lt;/font&gt;" style="html=1;align=left;verticalAlign=top;rounded=1;absoluteArcSize=1;arcSize=10;dashed=0;whiteSpace=wrap;spacingLeft=5;" parent="t_7kuoQSuqC10oWzcS06-14" vertex="1">
          <mxGeometry x="535" y="29.44" width="263" height="82.56" as="geometry" />
        </mxCell>
        <mxCell id="t_7kuoQSuqC10oWzcS06-12" value="" style="group" parent="1" vertex="1" connectable="0">
          <mxGeometry x="25" y="280" width="800" height="90" as="geometry" />
        </mxCell>
        <mxCell id="t_7kuoQSuqC10oWzcS06-7" value="" style="whiteSpace=wrap;html=1;dashed=1;fillColor=none;strokeColor=#FF8000;strokeWidth=2;rounded=1;arcSize=4;fontColor=#FF8000;" parent="t_7kuoQSuqC10oWzcS06-12" vertex="1">
          <mxGeometry width="800" height="90" as="geometry" />
        </mxCell>
        <mxCell id="t_7kuoQSuqC10oWzcS06-8" value="&lt;font color=&quot;#ff8000&quot; style=&quot;font-size: 17px;&quot;&gt;1. Init&lt;/font&gt;" style="text;strokeColor=none;align=left;fillColor=none;html=1;verticalAlign=middle;whiteSpace=wrap;rounded=0;" parent="t_7kuoQSuqC10oWzcS06-12" vertex="1">
          <mxGeometry x="7.887323943661972" y="9" width="67.60563380281691" height="30" as="geometry" />
        </mxCell>
        <mxCell id="aM9ryv3xv72pqoxQDRHE-1" value="B2 Host" style="shape=umlLifeline;perimeter=lifelinePerimeter;whiteSpace=wrap;html=1;container=0;dropTarget=0;collapsible=0;recursiveResize=0;outlineConnect=0;portConstraint=eastwest;newEdgeStyle={&quot;edgeStyle&quot;:&quot;elbowEdgeStyle&quot;,&quot;elbow&quot;:&quot;vertical&quot;,&quot;curved&quot;:0,&quot;rounded&quot;:0};" parent="1" vertex="1">
          <mxGeometry x="260" y="170" width="100" height="880" as="geometry" />
        </mxCell>
        <mxCell id="aM9ryv3xv72pqoxQDRHE-2" value="" style="html=1;points=[];perimeter=orthogonalPerimeter;outlineConnect=0;targetShapes=umlLifeline;portConstraint=eastwest;newEdgeStyle={&quot;edgeStyle&quot;:&quot;elbowEdgeStyle&quot;,&quot;elbow&quot;:&quot;vertical&quot;,&quot;curved&quot;:0,&quot;rounded&quot;:0};fillColor=default;" parent="aM9ryv3xv72pqoxQDRHE-1" vertex="1">
          <mxGeometry x="45" y="70" width="10" height="770" as="geometry" />
        </mxCell>
        <mxCell id="aM9ryv3xv72pqoxQDRHE-5" value="Backup Host" style="shape=umlLifeline;perimeter=lifelinePerimeter;whiteSpace=wrap;html=1;container=0;dropTarget=0;collapsible=0;recursiveResize=0;outlineConnect=0;portConstraint=eastwest;newEdgeStyle={&quot;edgeStyle&quot;:&quot;elbowEdgeStyle&quot;,&quot;elbow&quot;:&quot;vertical&quot;,&quot;curved&quot;:0,&quot;rounded&quot;:0};" parent="1" vertex="1">
          <mxGeometry x="495" y="170" width="100" height="880" as="geometry" />
        </mxCell>
        <mxCell id="aM9ryv3xv72pqoxQDRHE-6" value="" style="html=1;points=[];perimeter=orthogonalPerimeter;outlineConnect=0;targetShapes=umlLifeline;portConstraint=eastwest;newEdgeStyle={&quot;edgeStyle&quot;:&quot;elbowEdgeStyle&quot;,&quot;elbow&quot;:&quot;vertical&quot;,&quot;curved&quot;:0,&quot;rounded&quot;:0};" parent="aM9ryv3xv72pqoxQDRHE-5" vertex="1">
          <mxGeometry x="45" y="70" width="10" height="770" as="geometry" />
        </mxCell>
        <mxCell id="t_7kuoQSuqC10oWzcS06-10" style="edgeStyle=orthogonalEdgeStyle;rounded=0;orthogonalLoop=1;jettySize=auto;html=1;" parent="1" source="t_7kuoQSuqC10oWzcS06-9" target="aM9ryv3xv72pqoxQDRHE-6" edge="1">
          <mxGeometry relative="1" as="geometry">
            <Array as="points">
              <mxPoint x="530" y="320" />
              <mxPoint x="530" y="320" />
            </Array>
          </mxGeometry>
        </mxCell>
        <mxCell id="t_7kuoQSuqC10oWzcS06-11" style="edgeStyle=orthogonalEdgeStyle;rounded=0;orthogonalLoop=1;jettySize=auto;html=1;" parent="1" source="t_7kuoQSuqC10oWzcS06-9" target="aM9ryv3xv72pqoxQDRHE-2" edge="1">
          <mxGeometry relative="1" as="geometry">
            <Array as="points">
              <mxPoint x="310" y="320" />
              <mxPoint x="310" y="320" />
            </Array>
          </mxGeometry>
        </mxCell>
        <mxCell id="t_7kuoQSuqC10oWzcS06-9" value="ADMIN Host Give&lt;br&gt;JWT token to hosts in&lt;br&gt;/home/status" style="html=1;align=center;verticalAlign=top;rounded=1;absoluteArcSize=1;arcSize=10;dashed=0;whiteSpace=wrap;" parent="1" vertex="1">
          <mxGeometry x="355" y="292" width="140" height="60" as="geometry" />
        </mxCell>
        <mxCell id="t_7kuoQSuqC10oWzcS06-17" style="edgeStyle=elbowEdgeStyle;rounded=0;orthogonalLoop=1;jettySize=auto;html=1;elbow=vertical;curved=0;" parent="1" source="aM9ryv3xv72pqoxQDRHE-2" target="aM9ryv3xv72pqoxQDRHE-6" edge="1">
          <mxGeometry relative="1" as="geometry">
            <Array as="points">
              <mxPoint x="420" y="430" />
            </Array>
          </mxGeometry>
        </mxCell>
        <mxCell id="t_7kuoQSuqC10oWzcS06-18" value="/token" style="edgeLabel;html=1;align=center;verticalAlign=middle;resizable=0;points=[];" parent="t_7kuoQSuqC10oWzcS06-17" vertex="1" connectable="0">
          <mxGeometry x="0.0667" relative="1" as="geometry">
            <mxPoint x="-14" as="offset" />
          </mxGeometry>
        </mxCell>
        <mxCell id="t_7kuoQSuqC10oWzcS06-20" style="edgeStyle=elbowEdgeStyle;rounded=0;orthogonalLoop=1;jettySize=auto;html=1;elbow=vertical;curved=0;endArrow=none;endFill=0;startArrow=classic;startFill=1;" parent="1" source="aM9ryv3xv72pqoxQDRHE-2" target="aM9ryv3xv72pqoxQDRHE-6" edge="1">
          <mxGeometry relative="1" as="geometry">
            <mxPoint x="300.2816901408451" y="506" as="sourcePoint" />
            <mxPoint x="560" y="510" as="targetPoint" />
            <Array as="points">
              <mxPoint x="446.69014084507046" y="506" />
            </Array>
          </mxGeometry>
        </mxCell>
        <mxCell id="t_7kuoQSuqC10oWzcS06-22" value="&lt;font style=&quot;font-size: 18px;&quot;&gt;{&lt;/font&gt; token, FTP credentials &lt;font style=&quot;font-size: 18px;&quot;&gt;}&lt;/font&gt;" style="edgeLabel;html=1;align=center;verticalAlign=middle;resizable=0;points=[];" parent="t_7kuoQSuqC10oWzcS06-20" vertex="1" connectable="0">
          <mxGeometry x="-0.0497" relative="1" as="geometry">
            <mxPoint x="2" as="offset" />
          </mxGeometry>
        </mxCell>
        <mxCell id="t_7kuoQSuqC10oWzcS06-29" style="edgeStyle=elbowEdgeStyle;rounded=0;orthogonalLoop=1;jettySize=auto;html=1;elbow=vertical;curved=0;" parent="1" source="aM9ryv3xv72pqoxQDRHE-2" target="aM9ryv3xv72pqoxQDRHE-6" edge="1">
          <mxGeometry relative="1" as="geometry" />
        </mxCell>
        <mxCell id="t_7kuoQSuqC10oWzcS06-38" value="&lt;font style=&quot;font-size: 11px;&quot;&gt;=&amp;gt; Delete FTP account&lt;/font&gt;&lt;div style=&quot;font-size: 11px;&quot;&gt;&lt;font style=&quot;font-size: 11px;&quot;&gt;=&amp;gt; Delete token&lt;/font&gt;&lt;/div&gt;" style="html=1;align=left;verticalAlign=top;rounded=1;absoluteArcSize=1;arcSize=10;dashed=0;whiteSpace=wrap;spacingLeft=5;" parent="1" vertex="1">
          <mxGeometry x="561.79" y="769.44" width="220.21" height="82.56" as="geometry" />
        </mxCell>
        <mxCell id="t_7kuoQSuqC10oWzcS06-39" value="&lt;h1&gt;Backups&lt;/h1&gt;" style="text;html=1;align=left;verticalAlign=middle;resizable=0;points=[];autosize=1;strokeColor=none;fillColor=none;" parent="1" vertex="1">
          <mxGeometry x="40" width="120" height="70" as="geometry" />
        </mxCell>
        <mxCell id="t_7kuoQSuqC10oWzcS06-40" value="&lt;h2&gt;Export&lt;/h2&gt;" style="text;html=1;align=left;verticalAlign=middle;resizable=0;points=[];autosize=1;strokeColor=none;fillColor=none;fontStyle=4" parent="1" vertex="1">
          <mxGeometry x="40" y="65" width="80" height="60" as="geometry" />
        </mxCell>
        <mxCell id="t_7kuoQSuqC10oWzcS06-35" style="edgeStyle=elbowEdgeStyle;rounded=0;orthogonalLoop=1;jettySize=auto;html=1;elbow=vertical;curved=0;entryX=0.067;entryY=0.732;entryDx=0;entryDy=0;entryPerimeter=0;exitX=1.19;exitY=0.733;exitDx=0;exitDy=0;exitPerimeter=0;" parent="1" edge="1" target="aM9ryv3xv72pqoxQDRHE-6" source="aM9ryv3xv72pqoxQDRHE-2">
          <mxGeometry relative="1" as="geometry">
            <mxPoint x="284.7402597402597" y="804" as="sourcePoint" />
            <mxPoint x="560" y="804" as="targetPoint" />
          </mxGeometry>
        </mxCell>
        <mxCell id="t_7kuoQSuqC10oWzcS06-36" value="/token-release" style="edgeLabel;html=1;align=center;verticalAlign=middle;resizable=0;points=[];" parent="t_7kuoQSuqC10oWzcS06-35" vertex="1" connectable="0">
          <mxGeometry x="-0.157" relative="1" as="geometry">
            <mxPoint x="16" y="-1" as="offset" />
          </mxGeometry>
        </mxCell>
      </root>
    </mxGraphModel>
  </diagram>
</mxfile>
